<svg width="96" height="96" viewBox="0 0 96 96" fill="none" xmlns="http://www.w3.org/2000/svg">
  <rect width="96" height="96" rx="20" fill="#1A1A2E"/>
  <!-- Connections -->
  <line x1="48" y1="18" x2="20" y2="62" stroke="#00CEC9" stroke-width="1.8" opacity="0.45"/>
  <line x1="48" y1="18" x2="76" y2="62" stroke="#00CEC9" stroke-width="1.8" opacity="0.45"/>
  <line x1="20" y1="62" x2="76" y2="62" stroke="#6C5CE7" stroke-width="1.8" opacity="0.35"/>
  <line x1="20" y1="62" x2="48" y2="82" stroke="#6C5CE7" stroke-width="1.5" opacity="0.3"/>
  <line x1="76" y1="62" x2="48" y2="82" stroke="#6C5CE7" stroke-width="1.5" opacity="0.3"/>
  <line x1="48" y1="18" x2="48" y2="82" stroke="#00CEC9" stroke-width="1.2" opacity="0.2"/>
  <!-- Crossbar -->
  <line x1="30" y1="48" x2="66" y2="48" stroke="#00CEC9" stroke-width="2" opacity="0.55"/>
  <!-- Nodes -->
  <circle cx="48" cy="18" r="6" fill="#6C5CE7"/>
  <circle cx="48" cy="18" r="3" fill="#9B8FF2" opacity="0.6"/>
  <circle cx="20" cy="62" r="5.5" fill="#00CEC9"/>
  <circle cx="20" cy="62" r="2.8" fill="#66F0E8" opacity="0.5"/>
  <circle cx="76" cy="62" r="5.5" fill="#00CEC9"/>
  <circle cx="76" cy="62" r="2.8" fill="#66F0E8" opacity="0.5"/>
  <circle cx="48" cy="82" r="4" fill="#6C5CE7" opacity="0.55"/>
  <circle cx="30" cy="48" r="3.5" fill="#00CEC9" opacity="0.65"/>
  <circle cx="66" cy="48" r="3.5" fill="#00CEC9" opacity="0.65"/>
</svg>
